<?xml version="1.0" encoding="UTF-8" standalone="no"?>
<!-- Created with Inkscape (http://www.inkscape.org/) -->

<svg
   xmlns:dc="http://purl.org/dc/elements/1.1/"
   xmlns:cc="http://creativecommons.org/ns#"
   xmlns:rdf="http://www.w3.org/1999/02/22-rdf-syntax-ns#"
   xmlns:svg="http://www.w3.org/2000/svg"
   xmlns="http://www.w3.org/2000/svg"
   xmlns:sodipodi="http://sodipodi.sourceforge.net/DTD/sodipodi-0.dtd"
   xmlns:inkscape="http://www.inkscape.org/namespaces/inkscape"
   version="1.1"
   id="svg2"
   width="416.08264"
   height="480.11526"
   viewBox="0 0 416.08264 480.11526"
   sodipodi:docname="maillot_vert.svg"
   inkscape:version="0.92.3 (2405546, 2018-03-11)">
  <metadata
     id="metadata8">
    <rdf:RDF>
      <cc:Work
         rdf:about="">
        <dc:format>image/svg+xml</dc:format>
        <dc:type
           rdf:resource="http://purl.org/dc/dcmitype/StillImage" />
        <dc:title></dc:title>
      </cc:Work>
    </rdf:RDF>
  </metadata>
  <defs
     id="defs6" />
  <sodipodi:namedview
     pagecolor="#ffffff"
     bordercolor="#666666"
     borderopacity="1"
     objecttolerance="10"
     gridtolerance="10"
     guidetolerance="10"
     inkscape:pageopacity="0"
     inkscape:pageshadow="2"
     inkscape:window-width="1850"
     inkscape:window-height="1016"
     id="namedview4"
     showgrid="false"
     inkscape:zoom="0.78666667"
     inkscape:cx="187.35863"
     inkscape:cy="322.90998"
     inkscape:window-x="70"
     inkscape:window-y="27"
     inkscape:window-maximized="1"
     inkscape:current-layer="svg2"
     fit-margin-top="0"
     fit-margin-left="0"
     fit-margin-right="0"
     fit-margin-bottom="0" />
  <path
     style="opacity:1;fill:#72b955;fill-opacity:1;stroke:none;stroke-width:1.5;stroke-linecap:square;stroke-linejoin:round;stroke-miterlimit:4;stroke-dasharray:none;stroke-dashoffset:0;stroke-opacity:1"
     d="M 260.45113,14.340414 150.9609,15.690023 c -0.10955,0.0013 -0.16087,0.09395 -0.19727,0.197265 l -7.24804,20.546878 c -10.52248,3.91755 -82.020296,30.75833 -82.005856,30.85937 l 0.13086,0.91016 -28.8086,15.04297 c -0.0971,0.0507 -17.26184,34.471624 -17.27734,34.580084 L 1.6230133,215.33846 c -0.0155,0.10845 8.4058807,10.50686 8.5117207,10.53516 l 19.33789,5.16797 c 0.10583,0.0283 37.90712,0.80229 37.94922,0.70117 l 13.08789,-31.39258 19.970696,139.85547 c 0.0155,0.10845 0.0897,0.19922 0.19922,0.19922 h -0.955076 c -0.10955,0 -0.18726,0.0882 -0.19726,0.19727 l -12.39454,135.125 c -0.01,0.1091 12.48224,-1.39281 12.5918,-1.39258 l 217.523436,0.46484 c 0.10955,2.3e-4 9.70331,-0.35363 9.69531,-0.46289 L 317.0527,340.60214 c -0.008,-0.10925 -0.0877,-0.19727 -0.19727,-0.19727 0.10955,0 0.18067,-0.0909 0.19727,-0.19922 l 20.76562,-135.69726 11.46289,27.49414 c 0.0421,0.10112 37.84339,-0.67288 37.94922,-0.70117 l 19.33789,-5.16797 c 0.10584,-0.0283 8.52721,-10.42671 8.51172,-10.53516 L 401.1484,118.08651 c -0.0155,-0.10846 -17.17828,-34.529374 -17.27539,-34.580084 l -25.5,-13.31445 0.0273,-0.17969 c 5e-4,-0.003 -1.5476,-0.62953 -1.70703,-0.69726 l -2.94531,-1.53907 c -3.7e-4,-1.9e-4 -0.0421,0.31082 -0.043,0.31446 -12.55149,-5.16371 -84.39652,-34.21966 -85.44141,-34.60156 l -4.46875,-17.601568 c -0.027,-0.106182 -3.2342,-1.548175 -3.34375,-1.546874 z"
     id="rect943"
     inkscape:connector-curvature="0" />
  <path
     style="fill:#000000"
     d="m 87.462684,478.49013 c -4.80836,-2.59021 -5.11803,-5.64689 -3.53968,-9.63899 0.70145,-1.77419 1.3168,-10.628 1.52705,-21.97166 0.35484,-19.14409 1.22362,-28.80249 5.80181,-64.5 1.37548,-10.725 2.79325,-25.125 3.15061,-32 0.66388,-12.77217 -0.40539,-23.35408 -7.57853,-75 -1.10765,-7.975 -2.42147,-17.875 -2.9196,-22 -1.88315,-15.59453 -3.95154,-26.18116 -6.63733,-33.97197 -0.95333,-2.76538 -2.28441,1.06322 -2.16667,6.23204 0.13849,6.08011 -1.86463,8.29144 -9.30429,10.27138 -10.10239,2.68858 -31.89547,1.17014 -47.14552,-3.28489 -6.6012,-1.92842 -15.2066617,-7.53426 -17.5542467,-11.43531 -1.49591697,-2.48582 -1.48277497,-3.58024 0.174123,-14.5 0.985691,-6.49619 1.975106,-13.61125 2.198701,-15.81125 0.223595,-2.2 0.852333,-7.6 1.397196,-12 0.544864,-4.4 1.44952,-13.625 2.010348,-20.5 2.063193,-25.29197 3.3224187,-34.66959 5.6397587,-42 4.53523,-14.34625 15.779,-31.597624 25.08106,-38.482014 9.29599,-6.87988 31.96368,-17.17233 53.81962,-24.43721 24.365946,-8.09921 35.006436,-12.39283 45.419626,-18.32757 l 7.46273,-4.25321 1.16431,-6 c 0.64036,-3.3 1.45403,-7.637066 1.80813,-9.637924 1.09933,-6.2116602 6.67367,-10.3282922 18.38173,-13.5748342 8.10757,-2.24815995 76.79996,-2.21130195 85.32576,0.04578 11.16341,2.955352 17.84846,8.010041 17.9229,13.5518332 0.0754,5.615205 2.80713,15.448395 4.59061,16.524645 11.72911,7.07801 22.47461,11.89602 38.37426,17.20602 5.775,1.92868 11.4,3.88833 12.5,4.35479 1.1,0.46646 6.95,2.51252 13,4.54681 10.64435,3.57911 29.96857,12.59722 38.4032,17.92177 7.36136,4.64703 15.59988,14.61993 21.95151,26.572784 6.98772,13.1499 8.81742,21.40102 11.19588,50.48833 0.62962,7.7 1.54741,16.7 2.03953,20 0.49213,3.3 0.89817,8.35604 0.90233,11.23565 0.004,2.87961 0.45579,7.15461 1.00365,9.5 0.54785,2.34539 1.65551,8.48282 2.46145,13.63872 2.10046,13.43733 0.36062,16.77661 -11.95755,22.95002 -11.20318,5.61463 -39.9099,8.8924 -52.47604,5.99178 -7.61791,-1.75842 -10.02396,-4.44902 -10.02396,-11.2094 0,-5.43278 -1.38169,-8.27785 -2.36571,-4.87129 -1.8827,6.51772 -4.76502,21.5906 -6.07419,31.76452 -2.1787,16.93142 -4.33872,33.26985 -6.01532,45.5 -4.81604,35.1311 -4.81301,35.09338 -4.25298,52.92183 0.30369,9.66799 1.49664,24.32817 2.65099,32.57817 4.44084,31.73825 6.13926,50.81056 5.97405,67.0855 -0.10451,10.29616 0.24098,16.84087 0.95994,18.18426 1.70941,3.19406 1.35544,5.67391 -1.12678,7.89409 -2.83161,2.53269 -8.29971,4.73248 -9.66548,3.88838 -1.25854,-0.77781 -218.49931,-0.8799 -224.406286,-0.10545 -3.08661,0.40467 -6.28128,0.173 -9.0827,-1.33613 z m 237.344846,-5.53882 c 0.92108,-1.10983 0.86633,-2.05714 -0.24564,-4.25 -1.10283,-2.17483 -1.32554,-5.80253 -0.97132,-15.82183 0.53369,-15.09602 -1.32201,-37.68797 -5.74981,-70 -0.52758,-3.85 -1.49893,-14.3113 -2.15857,-23.24733 -1.31192,-17.77257 -0.69146,-29.02957 3.1281,-56.75267 1.13664,-8.25 2.51233,-18.6 3.05709,-23 3.73937,-30.20302 6.34128,-47.15763 8.28703,-54 1.89112,-6.65024 3.44846,-13.94995 4.20435,-19.7069 0.3399,-2.5888 1.49335,-5.7388 2.5632,-7 l 1.94519,-2.2931 2,2.36078 c 1.31151,1.5481 2,3.81438 2,6.58334 0,2.3224 0.3084,4.53095 0.68534,4.90788 1.51408,1.51408 3.28541,8.41926 3.2996,12.86282 0.0216,6.75388 1.38655,7.28936 18.51506,7.26349 20.8413,-0.0315 34.2974,-3.26199 42.27689,-10.14975 l 3.27689,-2.82856 -1.1148,-7.5 c -2.55399,-17.18239 -2.91738,-19.94729 -3.8772,-29.5 -0.55263,-5.5 -1.48832,-14.725 -2.07933,-20.5 -0.59101,-5.775 -1.48571,-15.45 -1.98822,-21.5 -1.15694,-13.92911 -2.18481,-18.69473 -6.01832,-27.90322 -3.06648,-7.36601 -12.21709,-21.947764 -16.32797,-26.019084 -4.25728,-4.21629 -9.41611,-7.59363 -19.69174,-12.8916 -11.82939,-6.09907 -15.77263,-7.60343 -55.79804,-21.28722 -9.95785,-3.40436 -23.01003,-9.29373 -31.65816,-14.28469 -5.29551,-3.05612 -7.33312,-6.56143 -7.44356,-12.80517 -0.031,-1.75504 -0.55114,-3.49673 -1.15577,-3.87041 -0.60694,-0.37511 -3.63022,1.7628 -6.75,4.77326 -10.01115,9.66037 -19.44226,15.64162 -29.65067,18.80457 -2.2,0.68164 -5.03367,1.63179 -6.29705,2.11145 -1.26338,0.47966 -3.73838,0.87178 -5.5,0.87138 l -3.20295,-7.4e-4 0.30316,30.96714 c 0.33569,34.288984 0.1789,35.356024 -5.1196,34.842734 l -3.18356,-0.3084 -0.26366,-32.750004 -0.26367,-32.75 h -3.31118 c -3.55888,0 -15.10465,-3.63303 -20.72,-6.51983 -6.04666,-3.10853 -14.63934,-9.30597 -20.76228,-14.97474 -3.27059,-3.02799 -6.22388,-5.50543 -6.56287,-5.50543 -0.33899,0 -0.61634,1.18529 -0.61634,2.63398 0,5.78386 -2.26599,10.45444 -6.43126,13.25588 -8.40639,5.65392 -26.46972,13.44484 -46.568736,20.08564 -6.325,2.08981 -13.525,4.56961 -16,5.51068 -15.53462,5.90672 -21.25599,8.35646 -27.38599,11.72599 -3.79004,2.08331 -7.08509,3.78783 -7.32232,3.78783 -0.23724,0 -2.44326,1.38424 -4.90228,3.07609 -8.85997,6.09582 -19.70886,21.908524 -24.51828,35.736394 -2.82333,8.11755 -3.87604,14.04626 -4.91622,27.68752 -0.50327,6.6 -1.39988,16.725 -1.99247,22.5 -3.4288387,33.4152 -4.4445497,41.63308 -5.8549897,47.37134 -0.523358,2.12923 -0.739757,4.42328 -0.480888,5.09788 0.576098,1.50129 4.7226477,4.62583 9.2365977,6.96005 10.24184,5.29617 39.22626,8.34192 49.63684,5.21595 3.91152,-1.1745 4.01345,-1.32212 4.60796,-6.67314 0.33438,-3.00965 1.57188,-8.04834 2.75,-11.1971 1.17812,-3.14876 2.14204,-7.29542 2.14204,-9.21481 0,-2.56386 0.57921,-3.79979 2.183,-4.65811 1.85861,-0.9947 2.45299,-0.83487 4,1.0756 1.08309,1.33756 1.817,3.86894 1.817,6.2671 0,2.21276 0.423,5.65041 0.94001,7.63922 0.517,1.98881 1.71758,6.54102 2.66794,10.11602 2.16333,8.13779 4.66344,23.84982 7.87647,49.5 1.27429,10.17288 4.60052,35.20294 5.51491,41.5 4.047366,27.87271 3.508406,40.67849 -3.9772,94.5 -0.53547,3.85 -1.50767,16.10904 -2.16045,27.24232 -0.93734,15.98646 -1.04801,20.98099 -1.27265,24.98148 -0.6794,5.92317 -0.42867,4.15468 -0.87375,7.07548 -1.1896,4.22077 -1.81085,5.71148 -0.71708,6.80524 0.3667,0.36667 54.405026,-0.60452 118.046016,-0.60452 99.04747,0 115.88158,-0.20567 116.89616,-1.42817 z"
     id="path843"
     inkscape:connector-curvature="0"
     sodipodi:nodetypes="ccsssscscsscssssscsccccssccsscsssccccscsccsssssscccccscsscscsccscccscscssscsssccccsccsccccssssscsscsssssccccsssccsccsssscccsc" />
</svg>
