<?xml version="1.0" encoding="UTF-8" standalone="no"?>
<!-- Generator: Adobe Illustrator 19.0.0, SVG Export Plug-In . SVG Version: 6.00 Build 0)  -->

<svg
   xmlns:dc="http://purl.org/dc/elements/1.1/"
   xmlns:cc="http://creativecommons.org/ns#"
   xmlns:rdf="http://www.w3.org/1999/02/22-rdf-syntax-ns#"
   xmlns:svg="http://www.w3.org/2000/svg"
   xmlns="http://www.w3.org/2000/svg"
   xmlns:sodipodi="http://sodipodi.sourceforge.net/DTD/sodipodi-0.dtd"
   xmlns:inkscape="http://www.inkscape.org/namespaces/inkscape"
   version="1.1"
   id="Capa_1"
   x="0px"
   y="0px"
   viewBox="0 0 512 341.32599"
   xml:space="preserve"
   sodipodi:docname="urss.svg"
   inkscape:version="0.92.3 (2405546, 2018-03-11)"
   width="512"
   height="341.32599"><metadata
   id="metadata77"><rdf:RDF><cc:Work
       rdf:about=""><dc:format>image/svg+xml</dc:format><dc:type
         rdf:resource="http://purl.org/dc/dcmitype/StillImage" /><dc:title /></cc:Work></rdf:RDF></metadata><defs
   id="defs75" /><sodipodi:namedview
   pagecolor="#ffffff"
   bordercolor="#666666"
   borderopacity="1"
   objecttolerance="10"
   gridtolerance="10"
   guidetolerance="10"
   inkscape:pageopacity="0"
   inkscape:pageshadow="2"
   inkscape:window-width="1850"
   inkscape:window-height="1016"
   id="namedview73"
   showgrid="false"
   inkscape:zoom="0.921875"
   inkscape:cx="30.044658"
   inkscape:cy="81.07431"
   inkscape:window-x="70"
   inkscape:window-y="27"
   inkscape:window-maximized="1"
   inkscape:current-layer="g912"
   fit-margin-top="0"
   fit-margin-left="0"
   fit-margin-right="0"
   fit-margin-bottom="0" />




<g
   id="g42"
   transform="translate(0,-85.342017)">
</g>
<g
   id="g44"
   transform="translate(0,-85.342017)">
</g>
<g
   id="g46"
   transform="translate(0,-85.342017)">
</g>
<g
   id="g48"
   transform="translate(0,-85.342017)">
</g>
<g
   id="g50"
   transform="translate(0,-85.342017)">
</g>
<g
   id="g52"
   transform="translate(0,-85.342017)">
</g>
<g
   id="g54"
   transform="translate(0,-85.342017)">
</g>
<g
   id="g56"
   transform="translate(0,-85.342017)">
</g>
<g
   id="g58"
   transform="translate(0,-85.342017)">
</g>
<g
   id="g60"
   transform="translate(0,-85.342017)">
</g>
<g
   id="g62"
   transform="translate(0,-85.342017)">
</g>
<g
   id="g64"
   transform="translate(0,-85.342017)">
</g>
<g
   id="g66"
   transform="translate(0,-85.342017)">
</g>
<g
   id="g68"
   transform="translate(0,-85.342017)">
</g>
<g
   id="g70"
   transform="translate(0,-85.342017)">
</g>
<g
   id="g896"
   transform="translate(-44.610163,-28.449647)"><g
     id="g912"><path
       inkscape:connector-curvature="0"
       d="M 44.610163,28.449647 H 556.61016 V 369.77563 H 44.610163 Z"
       id="path2"
       style="fill:#cc0000;fill-opacity:1;stroke-width:1" /><g
       id="g4538"
       transform="translate(0.66872118,-0.6591489)"><path
         style="fill:#ffd700;fill-opacity:1;stroke-width:0.99999994"
         id="path4"
         d="m 297.09108,91.159911 h -31.82582 l 25.69642,18.859739 -9.66562,30.17559 25.69641,-18.62399 25.6964,18.62399 -9.66563,-30.17559 25.6964,-18.859739 h -31.82582 l -9.90135,-30.411343 z m 9.90139,-11.551594 5.65793,17.445263 h 18.1525 l -14.61631,10.6086 5.56361,17.32739 -14.75773,-10.72647 -14.75777,10.72647 5.56364,-17.32739 -14.61631,-10.6086 h 18.15251 z"
         inkscape:connector-curvature="0" /><path
         style="fill:#ffd700;fill-opacity:1;fill-rule:evenodd;stroke:none;stroke-width:0.99999994"
         id="path6"
         d="m 267.59563,182.21122 -40.06046,38.15562 21.36574,21.36574 18.44837,-18.57213 c 35.97732,36.51718 63.9416,64.90816 98.68361,100.16646 9.6173,9.97208 26.36592,-3.58807 15.63945,-15.10195 -36.70578,-35.77104 -62.14522,-61.58886 -100.38689,-99.09262 l 22.67295,-22.80616 z"
         inkscape:connector-curvature="0" /><path
         style="fill:#ffd700;fill-opacity:1;fill-rule:evenodd;stroke:none;stroke-width:0.99999994"
         id="path8"
         d="m 266.24362,289.25088 c 71.67057,66.48767 187.81122,-53.40137 39.38505,-140.28468 110.45562,122.718 4.41435,160.33848 -33.98173,122.48108 l -1.93311,-1.59719 c -1.56773,1.75985 -3.13898,3.51735 -4.70434,5.27838 -2.97513,-2.80774 -7.59576,-3.63287 -9.01732,1.16813 -5.84652,-0.40432 -9.27664,2.83485 -10.80545,8.90297 -10.87264,7.20207 -22.64348,13.52244 -29.40823,24.83358 -3.86626,11.96413 3.78137,17.16706 12.4321,16.17694 14.18134,-5.89133 18.56507,-18.62518 26.15375,-29.13124 5.3656,-1.70798 9.90962,-4.00415 10.74299,-8.88766"
         inkscape:connector-curvature="0" /></g></g></g></svg>